<?xml version="1.0" standalone="no"?>
<!DOCTYPE svg PUBLIC "-//W3C//DTD SVG 20010904//EN"
 "http://www.w3.org/TR/2001/REC-SVG-20010904/DTD/svg10.dtd">
<svg version="1.0" xmlns="http://www.w3.org/2000/svg"
 width="24.000000pt" height="24.000000pt" viewBox="0 0 24.000000 24.000000"
 preserveAspectRatio="xMidYMid meet">

<g transform="translate(0.000000,24.000000) scale(0.100000,-0.100000)"
	fill="#ffff" stroke="none">
<path

 d="M29 211 c-26 -26 -29 -36 -29 -91 0 -55 3 -65 29 -91 26 -26 36 -29
91 -29 55 0 65 3 91 29 26 26 29 36 29 91 0 88 -32 120 -120 120 -55 0 -65 -3
-91 -29z m131 -36 c18 -22 5 -31 -15 -11 -19 18 -24 19 -44 7 -19 -12 -6 -29
35 -46 26 -10 34 -20 34 -38 0 -37 -65 -53 -90 -22 -18 22 -5 31 15 11 19 -18
18 -18 39 -10 27 10 18 33 -19 48 -40 17 -53 39 -35 61 16 19 64 19 80 0z"/>
</g>
</svg>
